<mxfile host="app.diagrams.net" modified="2023-11-22T21:04:25.372Z" agent="Mozilla/5.0 (Macintosh; Intel Mac OS X 10_15_7) AppleWebKit/605.1.15 (KHTML, like Gecko) Version/17.1 Safari/605.1.15" etag="5t6fUmvkeVsujFCMBkuP" version="22.1.3" type="github">
  <diagram name="PÃ¡gina-1" id="iLEfcat6DbPxD0NL8u-s">
    <mxGraphModel dx="3090" dy="2607" grid="1" gridSize="10" guides="1" tooltips="1" connect="1" arrows="1" fold="1" page="1" pageScale="1" pageWidth="827" pageHeight="1169" math="0" shadow="0">
      <root>
        <mxCell id="0" />
        <mxCell id="1" parent="0" />
        <mxCell id="SH0BeQq6R3wMkAR7RaYj-30" value="" style="rounded=0;whiteSpace=wrap;html=1;" parent="1" vertex="1">
          <mxGeometry x="-200" y="-180" width="1610" height="990" as="geometry" />
        </mxCell>
        <mxCell id="SH0BeQq6R3wMkAR7RaYj-2" value="" style="rounded=0;whiteSpace=wrap;html=1;" parent="1" vertex="1">
          <mxGeometry x="-110" y="-70" width="1410" height="750" as="geometry" />
        </mxCell>
        <mxCell id="SH0BeQq6R3wMkAR7RaYj-4" value="" style="outlineConnect=0;dashed=0;verticalLabelPosition=bottom;verticalAlign=top;align=center;html=1;shape=mxgraph.aws3.ec2;fillColor=#F58534;gradientColor=none;" parent="1" vertex="1">
          <mxGeometry x="20" y="400" width="76.5" height="93" as="geometry" />
        </mxCell>
        <mxCell id="SH0BeQq6R3wMkAR7RaYj-5" value="" style="outlineConnect=0;dashed=0;verticalLabelPosition=bottom;verticalAlign=top;align=center;html=1;shape=mxgraph.aws3.ec2;fillColor=#F58534;gradientColor=none;" parent="1" vertex="1">
          <mxGeometry x="590" y="400" width="80" height="93" as="geometry" />
        </mxCell>
        <mxCell id="SH0BeQq6R3wMkAR7RaYj-6" value="" style="outlineConnect=0;dashed=0;verticalLabelPosition=bottom;verticalAlign=top;align=center;html=1;shape=mxgraph.aws3.ec2;fillColor=#F58534;gradientColor=none;" parent="1" vertex="1">
          <mxGeometry x="86.5" y="503" width="76.5" height="93" as="geometry" />
        </mxCell>
        <mxCell id="SH0BeQq6R3wMkAR7RaYj-7" value="" style="outlineConnect=0;dashed=0;verticalLabelPosition=bottom;verticalAlign=top;align=center;html=1;shape=mxgraph.aws3.ec2;fillColor=#F58534;gradientColor=none;" parent="1" vertex="1">
          <mxGeometry x="140" y="400" width="76.5" height="93" as="geometry" />
        </mxCell>
        <mxCell id="SH0BeQq6R3wMkAR7RaYj-9" value="" style="outlineConnect=0;dashed=0;verticalLabelPosition=bottom;verticalAlign=top;align=center;html=1;shape=mxgraph.aws3.ec2;fillColor=#F58534;gradientColor=none;" parent="1" vertex="1">
          <mxGeometry x="674" y="492" width="80" height="93" as="geometry" />
        </mxCell>
        <mxCell id="SH0BeQq6R3wMkAR7RaYj-10" value="" style="outlineConnect=0;dashed=0;verticalLabelPosition=bottom;verticalAlign=top;align=center;html=1;shape=mxgraph.aws3.ec2;fillColor=#F58534;gradientColor=none;" parent="1" vertex="1">
          <mxGeometry x="514" y="492" width="80" height="93" as="geometry" />
        </mxCell>
        <mxCell id="SH0BeQq6R3wMkAR7RaYj-11" value="" style="outlineConnect=0;dashed=0;verticalLabelPosition=bottom;verticalAlign=top;align=center;html=1;shape=mxgraph.aws3.ec2;fillColor=#F58534;gradientColor=none;" parent="1" vertex="1">
          <mxGeometry x="961" y="390" width="80" height="93" as="geometry" />
        </mxCell>
        <mxCell id="SH0BeQq6R3wMkAR7RaYj-12" value="" style="outlineConnect=0;dashed=0;verticalLabelPosition=bottom;verticalAlign=top;align=center;html=1;shape=mxgraph.aws3.ec2;fillColor=#F58534;gradientColor=none;" parent="1" vertex="1">
          <mxGeometry x="1100" y="390" width="80" height="93" as="geometry" />
        </mxCell>
        <mxCell id="SH0BeQq6R3wMkAR7RaYj-13" value="" style="outlineConnect=0;dashed=0;verticalLabelPosition=bottom;verticalAlign=top;align=center;html=1;shape=mxgraph.aws3.ec2;fillColor=#F58534;gradientColor=none;" parent="1" vertex="1">
          <mxGeometry x="1029" y="483" width="80" height="93" as="geometry" />
        </mxCell>
        <mxCell id="SH0BeQq6R3wMkAR7RaYj-14" value="Subnet" style="sketch=0;outlineConnect=0;gradientColor=none;html=1;whiteSpace=wrap;fontSize=12;fontStyle=0;shape=mxgraph.aws4.group;grIcon=mxgraph.aws4.group_subnet;strokeColor=#879196;fillColor=none;verticalAlign=top;align=left;spacingLeft=30;fontColor=#879196;dashed=0;" parent="1" vertex="1">
          <mxGeometry x="-37" y="300" width="323.5" height="330" as="geometry" />
        </mxCell>
        <mxCell id="SH0BeQq6R3wMkAR7RaYj-15" value="Subnet" style="sketch=0;outlineConnect=0;gradientColor=none;html=1;whiteSpace=wrap;fontSize=12;fontStyle=0;shape=mxgraph.aws4.group;grIcon=mxgraph.aws4.group_subnet;strokeColor=#879196;fillColor=none;verticalAlign=top;align=left;spacingLeft=30;fontColor=#879196;dashed=0;" parent="1" vertex="1">
          <mxGeometry x="468.25" y="300" width="323.5" height="330" as="geometry" />
        </mxCell>
        <mxCell id="SH0BeQq6R3wMkAR7RaYj-16" value="Subnet" style="sketch=0;outlineConnect=0;gradientColor=none;html=1;whiteSpace=wrap;fontSize=12;fontStyle=0;shape=mxgraph.aws4.group;grIcon=mxgraph.aws4.group_subnet;strokeColor=#879196;fillColor=none;verticalAlign=top;align=left;spacingLeft=30;fontColor=#879196;dashed=0;" parent="1" vertex="1">
          <mxGeometry x="907.25" y="281.5" width="323.5" height="330" as="geometry" />
        </mxCell>
        <mxCell id="SH0BeQq6R3wMkAR7RaYj-17" value="Region" style="sketch=0;outlineConnect=0;gradientColor=none;html=1;whiteSpace=wrap;fontSize=12;fontStyle=0;shape=mxgraph.aws4.group;grIcon=mxgraph.aws4.group_region;strokeColor=#879196;fillColor=none;verticalAlign=top;align=left;spacingLeft=30;fontColor=#879196;dashed=1;" parent="1" vertex="1">
          <mxGeometry x="-70" y="230" width="390" height="420" as="geometry" />
        </mxCell>
        <mxCell id="SH0BeQq6R3wMkAR7RaYj-18" value="Region" style="sketch=0;outlineConnect=0;gradientColor=none;html=1;whiteSpace=wrap;fontSize=12;fontStyle=0;shape=mxgraph.aws4.group;grIcon=mxgraph.aws4.group_region;strokeColor=#879196;fillColor=none;verticalAlign=top;align=left;spacingLeft=30;fontColor=#879196;dashed=1;" parent="1" vertex="1">
          <mxGeometry x="435" y="230" width="390" height="420" as="geometry" />
        </mxCell>
        <mxCell id="SH0BeQq6R3wMkAR7RaYj-19" value="Region" style="sketch=0;outlineConnect=0;gradientColor=none;html=1;whiteSpace=wrap;fontSize=12;fontStyle=0;shape=mxgraph.aws4.group;grIcon=mxgraph.aws4.group_region;strokeColor=#879196;fillColor=none;verticalAlign=top;align=left;spacingLeft=30;fontColor=#879196;dashed=1;" parent="1" vertex="1">
          <mxGeometry x="874" y="226.5" width="390" height="420" as="geometry" />
        </mxCell>
        <mxCell id="SH0BeQq6R3wMkAR7RaYj-20" value="" style="outlineConnect=0;dashed=0;verticalLabelPosition=bottom;verticalAlign=top;align=center;html=1;shape=mxgraph.aws3.cloud_2;fillColor=#F58534;gradientColor=none;" parent="1" vertex="1">
          <mxGeometry x="1300" y="-180" width="110" height="110" as="geometry" />
        </mxCell>
        <mxCell id="SH0BeQq6R3wMkAR7RaYj-23" style="edgeStyle=orthogonalEdgeStyle;rounded=0;orthogonalLoop=1;jettySize=auto;html=1;" parent="1" source="SH0BeQq6R3wMkAR7RaYj-22" target="SH0BeQq6R3wMkAR7RaYj-17" edge="1">
          <mxGeometry relative="1" as="geometry" />
        </mxCell>
        <mxCell id="SH0BeQq6R3wMkAR7RaYj-25" style="edgeStyle=orthogonalEdgeStyle;rounded=0;orthogonalLoop=1;jettySize=auto;html=1;" parent="1" source="SH0BeQq6R3wMkAR7RaYj-22" target="SH0BeQq6R3wMkAR7RaYj-19" edge="1">
          <mxGeometry relative="1" as="geometry" />
        </mxCell>
        <mxCell id="SH0BeQq6R3wMkAR7RaYj-26" value="" style="edgeStyle=orthogonalEdgeStyle;rounded=0;orthogonalLoop=1;jettySize=auto;html=1;" parent="1" source="SH0BeQq6R3wMkAR7RaYj-22" target="SH0BeQq6R3wMkAR7RaYj-18" edge="1">
          <mxGeometry relative="1" as="geometry" />
        </mxCell>
        <mxCell id="SH0BeQq6R3wMkAR7RaYj-22" value="" style="outlineConnect=0;dashed=0;verticalLabelPosition=bottom;verticalAlign=top;align=center;html=1;shape=mxgraph.aws3.classic_load_balancer;fillColor=#F58534;gradientColor=none;" parent="1" vertex="1">
          <mxGeometry x="594" y="40" width="69" height="72" as="geometry" />
        </mxCell>
        <mxCell id="SH0BeQq6R3wMkAR7RaYj-27" value="" style="outlineConnect=0;dashed=0;verticalLabelPosition=bottom;verticalAlign=top;align=center;html=1;shape=mxgraph.aws3.virtual_private_cloud;fillColor=#F58534;gradientColor=none;" parent="1" vertex="1">
          <mxGeometry x="-100" y="-60" width="79.5" height="54" as="geometry" />
        </mxCell>
        <mxCell id="SH0BeQq6R3wMkAR7RaYj-33" style="edgeStyle=orthogonalEdgeStyle;rounded=0;orthogonalLoop=1;jettySize=auto;html=1;" parent="1" source="SH0BeQq6R3wMkAR7RaYj-31" target="SH0BeQq6R3wMkAR7RaYj-22" edge="1">
          <mxGeometry relative="1" as="geometry" />
        </mxCell>
        <mxCell id="SH0BeQq6R3wMkAR7RaYj-31" value="" style="outlineConnect=0;dashed=0;verticalLabelPosition=bottom;verticalAlign=top;align=center;html=1;shape=mxgraph.aws3.users;fillColor=#ACACAC;gradientColor=none;" parent="1" vertex="1">
          <mxGeometry x="597" y="-320" width="66" height="63" as="geometry" />
        </mxCell>
        <mxCell id="SH0BeQq6R3wMkAR7RaYj-35" value="LOAD BALANCER" style="text;html=1;strokeColor=none;fillColor=none;align=center;verticalAlign=middle;whiteSpace=wrap;rounded=0;" parent="1" vertex="1">
          <mxGeometry x="641.5" y="20" width="145" height="60" as="geometry" />
        </mxCell>
        <mxCell id="SH0BeQq6R3wMkAR7RaYj-36" value="HTTPS REQUEST" style="text;html=1;strokeColor=none;fillColor=none;align=center;verticalAlign=middle;whiteSpace=wrap;rounded=0;" parent="1" vertex="1">
          <mxGeometry x="490" y="-160" width="145" height="60" as="geometry" />
        </mxCell>
        <mxCell id="SH0BeQq6R3wMkAR7RaYj-38" value="USERS" style="text;html=1;strokeColor=none;fillColor=none;align=center;verticalAlign=middle;whiteSpace=wrap;rounded=0;" parent="1" vertex="1">
          <mxGeometry x="663" y="-317" width="145" height="60" as="geometry" />
        </mxCell>
        <mxCell id="SH0BeQq6R3wMkAR7RaYj-39" value="" style="outlineConnect=0;dashed=0;verticalLabelPosition=bottom;verticalAlign=top;align=center;html=1;shape=mxgraph.aws3.internet_gateway;fillColor=#F58534;gradientColor=none;" parent="1" vertex="1">
          <mxGeometry x="590" y="-100" width="69" height="72" as="geometry" />
        </mxCell>
      </root>
    </mxGraphModel>
  </diagram>
</mxfile>
